<svg width="1200" height="675" viewBox="0 0 1200 675" role="img" aria-labelledby="title desc" xmlns="http://www.w3.org/2000/svg">
  <title id="title">Handling Android Permissions In React Native Apps</title>
  <desc id="desc">Handling Android Permissions In React Native Apps technical illustration showing Android permission flow for React Native features</desc>
  <defs>
    <linearGradient id="bg" x1="0" y1="0" x2="1200" y2="675" gradientUnits="userSpaceOnUse">
      <stop stop-color="#EAB308" stop-opacity="0.34"/>
      <stop offset="0.48" stop-color="#111827" stop-opacity="1"/>
      <stop offset="1" stop-color="#06B6D4" stop-opacity="0.28"/>
    </linearGradient>
    <pattern id="grid" width="42" height="42" patternUnits="userSpaceOnUse">
      <path d="M42 0H0V42" fill="none" stroke="#334155" stroke-opacity="0.35"/>
    </pattern>
  </defs>
  <rect width="1200" height="675" fill="#0B1020"/>
  <rect width="1200" height="675" fill="url(#bg)"/>
  <rect width="1200" height="675" fill="url(#grid)" opacity="0.55"/>
  <rect x="64" y="58" width="1072" height="555" rx="30" fill="#111827" fill-opacity="0.92" stroke="#334155" stroke-width="2"/>
  <rect x="96" y="100" width="300" height="50" rx="25" fill="#EAB308" fill-opacity="0.16" stroke="#EAB308" stroke-opacity="0.8"/>
  <text x="126" y="133" fill="#EAB308" font-family="Arial, sans-serif" font-size="21" font-weight="800">React Native</text>
  <rect x="96" y="202" width="396" height="24" rx="8" fill="#334155"/>
  <rect x="96" y="250" width="456" height="18" rx="7" fill="#475569"/>
  <rect x="96" y="290" width="362" height="18" rx="7" fill="#1F2937"/>
  
      <rect x="686" y="136" width="170" height="328" rx="34" fill="#0F172A" stroke="#EAB308" stroke-width="6"/>
      <rect x="714" y="196" width="114" height="42" rx="12" fill="#EAB308" fill-opacity="0.9"/>
      <rect x="714" y="270" width="114" height="18" rx="9" fill="#94A3B8"/>
      <rect x="714" y="312" width="86" height="18" rx="9" fill="#475569"/>
      <circle cx="771" cy="420" r="16" fill="#06B6D4"/>
      <path d="M894 222h92M894 302h120M894 382h82" stroke="#06B6D4" stroke-width="9" stroke-linecap="round"/>
      <text x="771" y="520" text-anchor="middle" fill="#F8FAFC" font-family="Arial" font-size="24" font-weight="700">Android permission flow for</text>
  <rect x="96" y="548" width="980" height="34" rx="17" fill="#0F172A" stroke="#334155"/>
  <text x="126" y="571" fill="#CBD5E1" font-family="Arial, sans-serif" font-size="17" font-weight="700">request timing  |  feature-level permission requests that feel intentional  |  React Native</text>
  <text x="96" y="430" fill="#F8FAFC" font-family="Arial, sans-serif" font-size="37" font-weight="800">Handling Android Permissions In</text>
<text x="96" y="474" fill="#F8FAFC" font-family="Arial, sans-serif" font-size="37" font-weight="800">React Native Apps</text>
</svg>
