<svg width="1200" height="675" viewBox="0 0 1200 675" fill="none" xmlns="http://www.w3.org/2000/svg">
  <rect width="1200" height="675" fill="#0F172A"/>
  <rect width="1200" height="675" fill="url(#bg)"/>
  <rect x="72" y="70" width="1056" height="535" rx="28" fill="#111827" stroke="#334155" stroke-width="2"/>
  <rect x="112" y="116" width="370" height="54" rx="27" fill="#F472B6" fill-opacity="0.18" stroke="#F472B6" stroke-opacity="0.6"/>
  <text x="140" y="151" fill="#F472B6" font-family="Arial, sans-serif" font-size="22" font-weight="700">React</text>
  <rect x="112" y="224" width="420" height="30" rx="10" fill="#1F2937"/>
  <rect x="112" y="282" width="500" height="24" rx="8" fill="#1F2937"/>
  <rect x="112" y="328" width="450" height="24" rx="8" fill="#334155"/>
  <rect x="700" y="150" width="180" height="310" rx="30" fill="#020617" stroke="#F472B6" stroke-opacity="0.8"/>
  <rect x="724" y="202" width="132" height="34" rx="10" fill="#F472B6" fill-opacity="0.9"/>
  <rect x="724" y="268" width="108" height="14" rx="7" fill="#94A3B8"/>
  <rect x="724" y="302" width="128" height="14" rx="7" fill="#475569"/>
  <circle cx="790" cy="414" r="16" fill="#F472B6"/>
  <text x="112" y="500" fill="#F8FAFC" font-family="Arial, sans-serif" font-size="38" font-weight="700">React Form Handling With</text>
  <text x="112" y="544" fill="#F8FAFC" font-family="Arial, sans-serif" font-size="38" font-weight="700">Validation And API Errors</text>
  <defs>
    <linearGradient id="bg" x1="0" y1="0" x2="1200" y2="675" gradientUnits="userSpaceOnUse">
      <stop stop-color="#F472B6" stop-opacity="0.28"/>
      <stop offset="0.52" stop-color="#0F172A" stop-opacity="0.96"/>
      <stop offset="1" stop-color="#22C55E" stop-opacity="0.16"/>
    </linearGradient>
  </defs>
</svg>
